<?xml version="1.0" standalone="no"?><svg xmlns="http://www.w3.org/2000/svg" viewBox="0 0 1440 320"><path fill="#6869F6" fill-opacity="1" d="M0,96L21.8,122.7C43.6,149,87,203,131,197.3C174.5,192,218,128,262,112C305.5,96,349,128,393,154.7C436.4,181,480,203,524,229.3C567.3,256,611,288,655,261.3C698.2,235,742,149,785,122.7C829.1,96,873,128,916,165.3C960,203,1004,245,1047,240C1090.9,235,1135,181,1178,165.3C1221.8,149,1265,171,1309,160C1352.7,149,1396,107,1418,85.3L1440,64L1440,320L1418.2,320C1396.4,320,1353,320,1309,320C1265.5,320,1222,320,1178,320C1134.5,320,1091,320,1047,320C1003.6,320,960,320,916,320C872.7,320,829,320,785,320C741.8,320,698,320,655,320C610.9,320,567,320,524,320C480,320,436,320,393,320C349.1,320,305,320,262,320C218.2,320,175,320,131,320C87.3,320,44,320,22,320L0,320Z"></path></svg>